<mxfile modified="2020-04-29T02:56:38.109Z" host="app.diagrams.net" agent="5.0 (Macintosh; Intel Mac OS X 10_15_4) AppleWebKit/605.1.15 (KHTML, like Gecko) Version/13.1 Safari/605.1.15" etag="GpprzhbZMKwDU9oxjv1H" version="13.0.2" type="github">
  <diagram id="f106602c-feb2-e66a-4537-3a34d633f6aa" name="Page-1">
    <mxGraphModel dx="946" dy="662" grid="1" gridSize="10" guides="1" tooltips="1" connect="1" arrows="1" fold="1" page="1" pageScale="1" pageWidth="1169" pageHeight="827" background="#ffffff" math="0" shadow="0">
      <root>
        <mxCell id="0" />
        <mxCell id="1" parent="0" />
        <mxCell id="nOGNeRs-vJIk99wnRTLA-31" value="" style="whiteSpace=wrap;html=1;" parent="1" vertex="1">
          <mxGeometry x="160" y="180" width="150" height="370" as="geometry" />
        </mxCell>
        <mxCell id="5" value="" style="edgeStyle=elbowEdgeStyle;fontSize=12;html=1;endArrow=oval;endFill=1;rounded=0;strokeWidth=2;endSize=6;startSize=4;dashed=0;strokeColor=#4284F3;elbow=vertical;" parent="1" edge="1">
          <mxGeometry width="100" relative="1" as="geometry">
            <mxPoint x="270" y="239.95348837209303" as="sourcePoint" />
            <mxPoint x="280" y="240" as="targetPoint" />
          </mxGeometry>
        </mxCell>
        <mxCell id="8" value="" style="edgeStyle=elbowEdgeStyle;fontSize=12;html=1;endArrow=oval;endFill=1;rounded=0;strokeWidth=2;endSize=6;startSize=4;dashed=0;strokeColor=#4284F3;elbow=vertical;" parent="1" edge="1">
          <mxGeometry width="100" relative="1" as="geometry">
            <mxPoint x="270" y="362.99959731543623" as="sourcePoint" />
            <mxPoint x="280" y="363.06" as="targetPoint" />
          </mxGeometry>
        </mxCell>
        <mxCell id="11" value="" style="edgeStyle=elbowEdgeStyle;fontSize=12;html=1;endArrow=oval;endFill=1;rounded=0;strokeWidth=2;endSize=6;startSize=4;dashed=0;strokeColor=#4284F3;elbow=vertical;" parent="1" edge="1">
          <mxGeometry width="100" relative="1" as="geometry">
            <mxPoint x="270" y="479.99924731182796" as="sourcePoint" />
            <mxPoint x="280" y="480.01" as="targetPoint" />
            <Array as="points" />
          </mxGeometry>
        </mxCell>
        <mxCell id="3" value="iOS" style="strokeColor=#dddddd;fillColor=#ffffff;shadow=1;strokeWidth=1;rounded=1;absoluteArcSize=1;arcSize=2;labelPosition=center;verticalLabelPosition=middle;align=center;verticalAlign=bottom;spacingLeft=0;fontColor=#999999;fontSize=12;whiteSpace=wrap;spacingBottom=2;html=1;" parent="1" vertex="1">
          <mxGeometry x="200" y="198" width="70" height="85" as="geometry" />
        </mxCell>
        <mxCell id="4" value="" style="dashed=0;html=1;fillColor=#757575;strokeColor=none;shape=mxgraph.gcp2.phone;part=1;" parent="3" vertex="1">
          <mxGeometry x="0.5" width="32" height="50" relative="1" as="geometry">
            <mxPoint x="-16" y="10" as="offset" />
          </mxGeometry>
        </mxCell>
        <mxCell id="6" value="Android" style="strokeColor=#dddddd;fillColor=#ffffff;shadow=1;strokeWidth=1;rounded=1;absoluteArcSize=1;arcSize=2;labelPosition=center;verticalLabelPosition=middle;align=center;verticalAlign=bottom;spacingLeft=0;fontColor=#999999;fontSize=12;whiteSpace=wrap;spacingBottom=2;html=1;" parent="1" vertex="1">
          <mxGeometry x="200" y="310" width="70" height="85" as="geometry" />
        </mxCell>
        <mxCell id="9" value="Web" style="strokeColor=#dddddd;fillColor=#ffffff;shadow=1;strokeWidth=1;rounded=1;absoluteArcSize=1;arcSize=2;labelPosition=center;verticalLabelPosition=middle;align=center;verticalAlign=bottom;spacingLeft=0;fontColor=#999999;fontSize=12;whiteSpace=wrap;spacingBottom=2;html=1;" parent="1" vertex="1">
          <mxGeometry x="200" y="430.0028571428572" width="70" height="85" as="geometry" />
        </mxCell>
        <mxCell id="nOGNeRs-vJIk99wnRTLA-25" value="" style="aspect=fixed;html=1;points=[];align=center;image;fontSize=12;image=img/lib/mscae/Managed_Desktop.svg;" parent="1" vertex="1">
          <mxGeometry x="210" y="454.5" width="50" height="36" as="geometry" />
        </mxCell>
        <mxCell id="nOGNeRs-vJIk99wnRTLA-26" value="" style="html=1;verticalLabelPosition=bottom;align=center;labelBackgroundColor=#ffffff;verticalAlign=top;strokeWidth=2;strokeColor=#0080F0;shadow=0;dashed=0;shape=mxgraph.ios7.icons.smartphone;" parent="1" vertex="1">
          <mxGeometry x="226" y="333" width="18" height="30" as="geometry" />
        </mxCell>
        <mxCell id="nOGNeRs-vJIk99wnRTLA-38" value="Microservice-1A" style="rounded=1;whiteSpace=wrap;html=1;" parent="1" vertex="1">
          <mxGeometry x="600" y="140" width="100" height="40" as="geometry" />
        </mxCell>
        <mxCell id="nOGNeRs-vJIk99wnRTLA-40" value="LB-1" style="aspect=fixed;html=1;points=[];align=center;image;fontSize=12;image=img/lib/mscae/Load_Balancer_feature.svg;" parent="1" vertex="1">
          <mxGeometry x="470" y="190" width="50" height="50" as="geometry" />
        </mxCell>
        <mxCell id="nOGNeRs-vJIk99wnRTLA-41" value="LB-2" style="aspect=fixed;html=1;points=[];align=center;image;fontSize=12;image=img/lib/mscae/Load_Balancer_feature.svg;" parent="1" vertex="1">
          <mxGeometry x="470" y="323" width="50" height="50" as="geometry" />
        </mxCell>
        <mxCell id="nOGNeRs-vJIk99wnRTLA-42" value="LB-3" style="aspect=fixed;html=1;points=[];align=center;image;fontSize=12;image=img/lib/mscae/Load_Balancer_feature.svg;" parent="1" vertex="1">
          <mxGeometry x="470" y="440.5" width="50" height="50" as="geometry" />
        </mxCell>
        <mxCell id="nOGNeRs-vJIk99wnRTLA-43" value="Microservice-1B" style="rounded=1;whiteSpace=wrap;html=1;" parent="1" vertex="1">
          <mxGeometry x="600" y="190" width="100" height="40" as="geometry" />
        </mxCell>
        <mxCell id="nOGNeRs-vJIk99wnRTLA-45" value="" style="endArrow=classic;html=1;entryX=0;entryY=0.5;entryDx=0;entryDy=0;exitX=1.06;exitY=0.44;exitDx=0;exitDy=0;exitPerimeter=0;" parent="1" source="nOGNeRs-vJIk99wnRTLA-40" target="nOGNeRs-vJIk99wnRTLA-38" edge="1">
          <mxGeometry width="50" height="50" relative="1" as="geometry">
            <mxPoint x="610" y="373" as="sourcePoint" />
            <mxPoint x="660" y="323" as="targetPoint" />
          </mxGeometry>
        </mxCell>
        <mxCell id="nOGNeRs-vJIk99wnRTLA-46" value="" style="endArrow=classic;html=1;entryX=0;entryY=0.5;entryDx=0;entryDy=0;" parent="1" target="nOGNeRs-vJIk99wnRTLA-43" edge="1">
          <mxGeometry width="50" height="50" relative="1" as="geometry">
            <mxPoint x="520" y="210" as="sourcePoint" />
            <mxPoint x="570" y="250" as="targetPoint" />
          </mxGeometry>
        </mxCell>
        <mxCell id="nOGNeRs-vJIk99wnRTLA-47" value="Microservice-1A" style="rounded=1;whiteSpace=wrap;html=1;" parent="1" vertex="1">
          <mxGeometry x="600" y="320" width="100" height="40" as="geometry" />
        </mxCell>
        <mxCell id="nOGNeRs-vJIk99wnRTLA-48" value="Microservice-1B" style="rounded=1;whiteSpace=wrap;html=1;" parent="1" vertex="1">
          <mxGeometry x="600" y="374" width="100" height="40" as="geometry" />
        </mxCell>
        <mxCell id="nOGNeRs-vJIk99wnRTLA-49" value="Microservice-1A" style="rounded=1;whiteSpace=wrap;html=1;" parent="1" vertex="1">
          <mxGeometry x="600" y="450.5" width="100" height="40" as="geometry" />
        </mxCell>
        <mxCell id="nOGNeRs-vJIk99wnRTLA-50" value="Microservice-1B" style="rounded=1;whiteSpace=wrap;html=1;" parent="1" vertex="1">
          <mxGeometry x="600" y="510" width="100" height="40" as="geometry" />
        </mxCell>
        <mxCell id="nOGNeRs-vJIk99wnRTLA-51" value="" style="endArrow=classic;html=1;entryX=0;entryY=0.5;entryDx=0;entryDy=0;exitX=1.06;exitY=0.48;exitDx=0;exitDy=0;exitPerimeter=0;" parent="1" source="nOGNeRs-vJIk99wnRTLA-41" target="nOGNeRs-vJIk99wnRTLA-47" edge="1">
          <mxGeometry width="50" height="50" relative="1" as="geometry">
            <mxPoint x="400" y="400" as="sourcePoint" />
            <mxPoint x="450" y="350" as="targetPoint" />
          </mxGeometry>
        </mxCell>
        <mxCell id="nOGNeRs-vJIk99wnRTLA-52" value="" style="endArrow=classic;html=1;entryX=0;entryY=0.5;entryDx=0;entryDy=0;exitX=1.06;exitY=0.6;exitDx=0;exitDy=0;exitPerimeter=0;" parent="1" source="nOGNeRs-vJIk99wnRTLA-41" target="nOGNeRs-vJIk99wnRTLA-48" edge="1">
          <mxGeometry width="50" height="50" relative="1" as="geometry">
            <mxPoint x="400" y="400" as="sourcePoint" />
            <mxPoint x="450" y="350" as="targetPoint" />
          </mxGeometry>
        </mxCell>
        <mxCell id="nOGNeRs-vJIk99wnRTLA-53" value="" style="endArrow=classic;html=1;entryX=0;entryY=0.5;entryDx=0;entryDy=0;exitX=1;exitY=0.57;exitDx=0;exitDy=0;exitPerimeter=0;" parent="1" source="nOGNeRs-vJIk99wnRTLA-42" target="nOGNeRs-vJIk99wnRTLA-49" edge="1">
          <mxGeometry width="50" height="50" relative="1" as="geometry">
            <mxPoint x="400" y="400" as="sourcePoint" />
            <mxPoint x="450" y="350" as="targetPoint" />
          </mxGeometry>
        </mxCell>
        <mxCell id="nOGNeRs-vJIk99wnRTLA-55" value="" style="endArrow=classic;html=1;entryX=0;entryY=0.5;entryDx=0;entryDy=0;" parent="1" target="nOGNeRs-vJIk99wnRTLA-50" edge="1">
          <mxGeometry width="50" height="50" relative="1" as="geometry">
            <mxPoint x="520" y="470" as="sourcePoint" />
            <mxPoint x="450" y="350" as="targetPoint" />
          </mxGeometry>
        </mxCell>
        <mxCell id="IbENvyRX8-FpUN2NoD2l-11" value="API&lt;br&gt;Gateway" style="outlineConnect=0;fontColor=#232F3E;gradientColor=#945DF2;gradientDirection=north;fillColor=#5A30B5;strokeColor=#ffffff;dashed=0;verticalLabelPosition=bottom;verticalAlign=top;align=center;html=1;fontSize=12;fontStyle=0;aspect=fixed;shape=mxgraph.aws4.resourceIcon;resIcon=mxgraph.aws4.api_gateway;" vertex="1" parent="1">
          <mxGeometry x="350" y="309" width="78" height="78" as="geometry" />
        </mxCell>
        <mxCell id="IbENvyRX8-FpUN2NoD2l-12" value="" style="endArrow=classic;html=1;" edge="1" parent="1" target="IbENvyRX8-FpUN2NoD2l-11">
          <mxGeometry width="50" height="50" relative="1" as="geometry">
            <mxPoint x="280" y="240" as="sourcePoint" />
            <mxPoint x="330" y="190" as="targetPoint" />
          </mxGeometry>
        </mxCell>
        <mxCell id="IbENvyRX8-FpUN2NoD2l-13" value="" style="endArrow=classic;html=1;exitX=1;exitY=0.5;exitDx=0;exitDy=0;" edge="1" parent="1" source="6" target="IbENvyRX8-FpUN2NoD2l-11">
          <mxGeometry width="50" height="50" relative="1" as="geometry">
            <mxPoint x="460" y="370" as="sourcePoint" />
            <mxPoint x="510" y="320" as="targetPoint" />
          </mxGeometry>
        </mxCell>
        <mxCell id="IbENvyRX8-FpUN2NoD2l-14" value="" style="endArrow=classic;html=1;exitX=1.029;exitY=0.4;exitDx=0;exitDy=0;exitPerimeter=0;" edge="1" parent="1" source="9" target="IbENvyRX8-FpUN2NoD2l-11">
          <mxGeometry width="50" height="50" relative="1" as="geometry">
            <mxPoint x="460" y="370" as="sourcePoint" />
            <mxPoint x="510" y="320" as="targetPoint" />
          </mxGeometry>
        </mxCell>
        <mxCell id="IbENvyRX8-FpUN2NoD2l-15" value="" style="endArrow=classic;html=1;" edge="1" parent="1" target="nOGNeRs-vJIk99wnRTLA-40">
          <mxGeometry width="50" height="50" relative="1" as="geometry">
            <mxPoint x="430" y="320" as="sourcePoint" />
            <mxPoint x="510" y="320" as="targetPoint" />
          </mxGeometry>
        </mxCell>
        <mxCell id="IbENvyRX8-FpUN2NoD2l-16" value="" style="endArrow=classic;html=1;entryX=0;entryY=0.54;entryDx=0;entryDy=0;entryPerimeter=0;" edge="1" parent="1" target="nOGNeRs-vJIk99wnRTLA-41">
          <mxGeometry width="50" height="50" relative="1" as="geometry">
            <mxPoint x="430" y="350" as="sourcePoint" />
            <mxPoint x="510" y="320" as="targetPoint" />
          </mxGeometry>
        </mxCell>
        <mxCell id="IbENvyRX8-FpUN2NoD2l-17" value="" style="endArrow=classic;html=1;entryX=0;entryY=0.23;entryDx=0;entryDy=0;entryPerimeter=0;" edge="1" parent="1" target="nOGNeRs-vJIk99wnRTLA-42">
          <mxGeometry width="50" height="50" relative="1" as="geometry">
            <mxPoint x="430" y="380" as="sourcePoint" />
            <mxPoint x="510" y="320" as="targetPoint" />
          </mxGeometry>
        </mxCell>
      </root>
    </mxGraphModel>
  </diagram>
</mxfile>
